<svg id="Слой_1" data-name="Слой 1" xmlns="http://www.w3.org/2000/svg" viewBox="0 0 201.5 290"><defs><style>.cls-1{fill:#fff;}</style></defs><g id="Слой_2" data-name="Слой 2"><g id="Слой_1-2" data-name="Слой 1-2"><path class="cls-1" d="M0,145V290l100.8-.2,100.7-.3-.1-59c0-32.5-.1-97.6-.2-144.8L201,0H0ZM187,29.5V46l-38.2.2-38.3.3-.3,6.2c-.3,5.5-.1,6.3,1.5,6.3H187V97H14.3l-.6-12.2c-.9-15.5-.9-61.1-.1-67.2l.7-4.6H187Zm.2,162.5c.2,45.1.2,82.5,0,83-.3.7-30.1,1-86.8,1H14V110H187Z"/><path class="cls-1" d="M148.5,137.6c-.5.1-2.3.5-3.8.8-5.9,1.3-8.8,11.7-4.7,16.9,4.5,5.7,14.5,5.7,18.9,0,2.9-3.6,2.8-10.3-.1-13.8C156.7,139.1,151,137,148.5,137.6Z"/><path class="cls-1" d="M46.4,139c-3.4,1.4-5.4,5-5.4,10,.1,6.7,4.3,11,11,11s10.9-4.2,11-11.3c0-4-.5-5.3-2.9-7.8-2.4-2.3-3.8-2.9-7.3-2.8A20.39,20.39,0,0,0,46.4,139Z"/><path class="cls-1" d="M93.7,139.1c-4.3,2.5-6,10.6-3.2,15.9,3.1,6,14.2,6.5,18.9.9,3.9-4.6,3.6-10.1-.8-14.5-2.9-2.9-4-3.4-8.2-3.4C97.7,138,94.7,138.5,93.7,139.1Z"/><path class="cls-1" d="M96.3,184.1c-7.8,2.3-10,14.6-3.4,19.6a15.27,15.27,0,0,0,5.7,1.8c7.5,1.2,13.4-3.6,13.4-11,0-4.9-2.2-8.3-6.6-10.1C101.6,182.8,100.8,182.8,96.3,184.1Z"/><path class="cls-1" d="M144,184.8a10.9,10.9,0,0,0,1.9,20.3c7.9,2.4,15.1-2.7,15.1-10.6,0-5.3-2.8-9.1-7.8-10.5S148.1,182.7,144,184.8Z"/><path class="cls-1" d="M46.1,185.4c-3.3,1.8-5,5.3-5.1,10.1,0,5.1,2,8,6.6,9.5,9.9,3.3,18.3-5.5,14.4-15C59.8,184.6,51.7,182.3,46.1,185.4Z"/><path class="cls-1" d="M46.1,230.4c-3.2,1.8-5,5.3-5.1,9.8-.1,11.1,16.4,14.8,21.2,4.7a13.1,13.1,0,0,0-.3-11.1C59.6,229.6,51,227.7,46.1,230.4Z"/><path class="cls-1" d="M93.8,230.7c-6.8,4.3-6.4,15.4.7,18.8,5.6,2.6,10.2,2,14.1-1.9,2.8-2.8,3.4-4.2,3.4-7.6s-.6-4.8-3.4-7.6-4.1-3.4-7.7-3.4A16.52,16.52,0,0,0,93.8,230.7Z"/><path class="cls-1" d="M143.1,230.4c-7.2,4-6.8,15.6.7,19.2,8.1,3.8,17.2-1.3,17.2-9.7,0-3.3-.6-4.7-3.4-7.5s-4.1-3.4-7.7-3.4A19.85,19.85,0,0,0,143.1,230.4Z"/></g></g></svg>